# xmcd
#
# Track frame offsets: 
#        150
#        26387
#        61182
#        73975
#        95420
#        114450
#        136037
#        157950
#        177562
#
# Disc length: 2520 seconds
#
# Revision: 4
# Processed by: cddbd v1.5.2PL0 Copyright (c) Steve Scherf et al.
# Submitted via: ExactAudioCopy v0.99pb4
#
DISCID=7209d609
DTITLE=Various Artist - The Blues... A Real Summit Meeting [CD1]
DYEAR=1973
DGENRE=Blues
TTITLE0=Little Red Rooster - "Big Mama" Thornton
TTITLE1=Ball And Chain - "Big Mama" Thornton
TTITLE2=Smooth Sailing - Jay McShann
TTITLE3=Confessin' The Blues - Jay McShann
TTITLE4=They Call Me Mr. Cleanhead - Eddie "Cleanhead" Vinson
TTITLE5=Hold It Right There - Eddie "Cleanhead" Vinson
TTITLE6=Back Door Blues - Eddie "Cleanhead" Vinson
TTITLE7=Kidney Stew - Eddie "Cleanhead" Vinson
TTITLE8=That's Alright Now Mama - Arthur "Big Boy" Crudup
EXTD=[Catégorie: Blues]\n[Enregistrement: 1973]
EXTT0="Big Mama" Thornton
EXTT1="Big Mama" Thornton
EXTT2=Jay McShann
EXTT3=Jay McShann
EXTT4=Eddie "Cleanhead" Vinson
EXTT5=Eddie "Cleanhead" Vinson
EXTT6=Eddie "Cleanhead" Vinson
EXTT7=Eddie "Cleanhead" Vinson
EXTT8=Arthur "Big Boy" Crudup
PLAYORDER=
